<svg width="200" height="200" viewBox="0 0 200 200" fill="none" xmlns="http://www.w3.org/2000/svg">
<mask id="path-1-inside-1" fill="white">
<path d="M200 100C200 155.228 155.228 200 100 200C44.7715 200 0 155.228 0 100C0 44.7715 44.7715 0 100 0C155.228 0 200 44.7715 200 100Z"/>
<path d="M104 99.5C104 101.433 102.433 103 100.5 103C98.567 103 97 101.433 97 99.5C97 97.567 98.567 96 100.5 96C102.433 96 104 97.567 104 99.5Z"/>
</mask>
<path d="M101.061 114.939C100.475 114.354 99.5251 114.354 98.9393 114.939L89.3934 124.485C88.8076 125.071 88.8076 126.021 89.3934 126.607C89.9792 127.192 90.9289 127.192 91.5147 126.607L100 118.121L108.485 126.607C109.071 127.192 110.021 127.192 110.607 126.607C111.192 126.021 111.192 125.071 110.607 124.485L101.061 114.939ZM98.8985 85.0518C99.4795 85.6423 100.429 85.65 101.02 85.0689L110.642 75.6004C111.233 75.0194 111.241 74.0697 110.66 73.4792C110.079 72.8887 109.129 72.881 108.538 73.462L99.9848 81.8785L91.5684 73.325C90.9873 72.7345 90.0376 72.7268 89.4471 73.3078C88.8566 73.8889 88.8489 74.8386 89.43 75.4291L98.8985 85.0518ZM85.0607 101.061C85.6464 100.475 85.6464 99.5251 85.0607 98.9393L75.5147 89.3934C74.9289 88.8076 73.9792 88.8076 73.3934 89.3934C72.8076 89.9792 72.8076 90.9289 73.3934 91.5147L81.8787 100L73.3934 108.485C72.8076 109.071 72.8076 110.021 73.3934 110.607C73.9792 111.192 74.9289 111.192 75.5147 110.607L85.0607 101.061ZM114.939 98.9393C114.354 99.5251 114.354 100.475 114.939 101.061L124.485 110.607C125.071 111.192 126.021 111.192 126.607 110.607C127.192 110.021 127.192 109.071 126.607 108.485L118.121 100L126.607 91.5147C127.192 90.9289 127.192 89.9792 126.607 89.3934C126.021 88.8076 125.071 88.8076 124.485 89.3934L114.939 98.9393ZM101.5 200V116H98.5V200H101.5ZM99.1461 -0.00714365L98.4677 83.9876L101.468 84.0119L102.146 0.0170848L99.1461 -0.00714365ZM0 101.5H84V98.5H0V101.5ZM200 98.5H116V101.5H200V98.5ZM197 100C197 153.572 153.572 197 100 197V203C156.885 203 203 156.885 203 100H197ZM100 197C46.4284 197 3 153.572 3 100H-3C-3 156.885 43.1147 203 100 203V197ZM3 100C3 46.4284 46.4284 3 100 3V-3C43.1147 -3 -3 43.1147 -3 100H3ZM100 3C153.572 3 197 46.4284 197 100H203C203 43.1147 156.885 -3 100 -3V3ZM101 99.5C101 99.7761 100.776 100 100.5 100V106C104.09 106 107 103.09 107 99.5H101ZM100.5 100C100.224 100 100 99.7761 100 99.5H94C94 103.09 96.9101 106 100.5 106V100ZM100 99.5C100 99.2239 100.224 99 100.5 99V93C96.9101 93 94 95.9101 94 99.5H100ZM100.5 99C100.776 99 101 99.2239 101 99.5H107C107 95.9101 104.09 93 100.5 93V99Z" fill="#DF2525" mask="url(#path-1-inside-1)"/>
</svg>
